<svg height="2500" viewBox="0 0 2500 2500" width="2500" xmlns="http://www.w3.org/2000/svg"><path d="m1483.924683 1268.428589c0 35.109497-28.461792 63.571411-63.571412 63.571411-35.109497 0-63.571411-28.461914-63.571411-63.571411s28.461914-63.571411 63.571411-63.571411c35.10962 0 63.571412 28.461914 63.571412 63.571411z" fill="#fff" fill-rule="evenodd"/><path d="m1199.124756 1268.428589c0 35.109497-28.461914 63.571411-63.571411 63.571411-35.109619 0-63.571533-28.461914-63.571533-63.571411s28.461914-63.571411 63.571533-63.571411c35.109497 0 63.571411 28.461914 63.571411 63.571411z" fill="#fff" fill-rule="evenodd"/><path d="m919.410461 1268.428589c0 35.109497-28.461914 63.571411-63.571472 63.571411-35.109497 0-63.571411-28.461914-63.571411-63.571411s28.461914-63.571411 63.571411-63.571411c35.109558 0 63.571472 28.461914 63.571472 63.571411z" fill="#fff" fill-rule="evenodd"/><path d="m1199.124756 861.571411c0 35.109497-28.461914 63.571411-63.571411 63.571411-35.109619 0-63.571533-28.461914-63.571533-63.571411s28.461914-63.571411 63.571533-63.571411c35.109497 0 63.571411 28.461914 63.571411 63.571411z" fill="#fff" fill-rule="evenodd"/><path d="m853.296143 1181.518188c0-61.737182 28.291015-115.718261 103.401123-114.579589l363.301269 2.794677c77.655396-.150024 97.81189 50.04773 97.81189 111.784912" fill="none" stroke="#fff" stroke-width="41.919376"/><path d="m1138.102783 1072.527832c-.581299 59.014038 0 108.990356 0 108.990356" fill="none" stroke="#fff" stroke-width="41.919376"/><path d="m1138.102783 960.742798c-.581299 59.014038 0 108.990478 0 108.990478" fill="none" stroke="#fff" stroke-width="41.919376"/><g fill-rule="evenodd"><path d="m1412.973022 1659.7771c30.310303 30.318359 60.620362 60.628418 90.936158 90.938232 17.507202 17.500977 45.304687 20.601318 66.270141 7.588867l22.107056 22.098633c-12.040405 22.403809-8.093384 50.602051 10.06665 68.762207l481.57959 481.57959c22.540528 22.54248 59.759522 22.53833 82.300049-.00415l105.59668-105.594727c22.619629-22.619873 22.747802-59.533691.134521-82.165772-160.573242-160.571289-321.142822-321.142578-481.712036-481.718017-18.160034-18.151611-46.360107-22.102783-68.76001-10.062256l-22.088745-22.091064c13.061646-21.077393 9.92041-48.714112-7.664184-66.304444l-91.253418-91.300537c67.397094-104.35791 101.108764-224.141113 101.108764-343.939209 0-350.562988-284.197876-634.76123-634.763794-634.76123-162.44281 0-324.893982 61.975097-448.840271 185.916992-123.942138 123.944336-185.916992 286.395264-185.916992 448.844238 0 162.441406 61.974854 324.89624 185.916992 448.842529 123.946289 123.942139 286.397461 185.917237 448.840271 185.917237 120.63794 0 241.276368-34.191651 346.142578-102.547119z" fill="#e4eac9" opacity=".032761"/><path d="m1115.630981 620.503418c275.449585 0 498.716187 223.272461 498.716187 498.720459 0 275.435303-223.278687 498.718262-498.716187 498.718262-275.447448 0-498.718322-223.275147-498.718322-498.718262 0-275.43335 223.279174-498.720459 498.718322-498.720459z" fill="#d5edef" opacity=".094045"/><path d="m1364.51001 1507.699951c-70.379517 47.111328-155.002808 74.609619-246.059082 74.609619-244.600403 0-442.87909-198.270752-442.87909-442.876953 0-185.026367 113.48462-343.526367 274.629639-409.768066-118.672607 79.45166-196.813843 214.72998-196.813843 368.268066 0 244.602295 198.270386 442.873291 442.874939 442.873291 59.562012 0 116.365479-11.788086 168.247437-33.105957z" fill="#bad6d6" opacity=".071013"/><path d="m1506.306763 1647.442139c59.106689-41.927246 111.234619-94.28711 152.927978-153.556397l87.910767 87.862061c11.287597 11.308105 11.27124 30.090576-.022461 41.385986-37.599609 37.5979-75.244141 75.138672-112.784668 112.784912-11.386963 10.412598-29.465698 10.070801-40.401123-.846191-28.265503-29.549072-58.628418-58.630371-87.630493-87.630371zm186.080078 138.435791c-13.108399 13.110351-13.108399 34.533691 0 47.639892l481.579468 481.583741c13.020996 13.020996 34.629638 13.016845 47.64624 0l105.59668-105.594971c13.102539-13.102051 13.15332-34.464112.065429-47.574463-156.3479-162.361816-321.925781-321.936279-481.645019-481.648682-13.108277-13.110595-34.539551-13.110595-47.647827 0zm-31.156372-42.195313 19.352173 19.343994 94.553711-94.547363-19.356202-19.352539zm-522.3125-6.22583c334.218384 0 610.253906-270.267578 610.253906-610.253906 0-337.031983-273.221802-610.253662-610.253906-610.253662-156.180725 0-312.357361 59.580078-431.514466 178.736816-119.156738 119.157227-178.739257 275.336182-178.739257 431.516846 0 156.172851 59.582519 312.357422 178.739257 431.514648 119.157105 119.156739 275.333741 178.739258 431.514466 178.739258zm-523.225647-610.251709c0 288.970703 234.252929 523.223633 523.225647 523.223633 288.963012 0 523.228027-234.260742 523.228027-523.22583 0-288.977295-234.255005-523.227783-523.228027-523.227783-288.964905 0-523.225647 234.26709-523.225647 523.22998z" fill="#41b0f6"/><path d="m1840.110596 1351.057129c62.343261-194.827881 39.994507-396.530762-46.614624-565.246094-187.265869-364.80957-634.698365-508.67334-999.436219-321.441894-364.807128 187.263672-508.671142 634.702392-321.439575 999.440429 126.362915 246.167237 377.970337 399.767823 650.549134 403.491211 74.572876 1.01709 147.979492-9.301513 217.972778-29.80957 15.42334-4.471924 8.622192-27.925781-6.799072-23.453613-67.744996 19.844482-138.765747 29.83789-210.88086 28.849121-264.009582-3.613526-507.108215-152.518799-629.113708-390.181397-181.062867-352.726074-41.914917-785.532959 310.815429-966.601318 352.726136-181.062988 785.526673-41.921387 966.595398 310.811035 83.91333 163.462402 105.460816 358.943604 44.765381 547.692871-5.238647 16.267822 19.925904 22.644287 23.585938 6.449219z" fill="#e16061"/><path d="m1928.868042 1370.17749c-4.724121 15.364502 18.637939 22.546143 23.359985 7.181641 46.020874-149.297852 50.30127-308.699219 12.840088-459.852783-94.187622-380.039551-436.625488-649.717285-831.295044-649.717285-219.201599 0-438.407165 83.630859-605.651672 250.872558-11.405396 11.403809 5.92456 28.727539 17.325806 17.334473 156.563354-156.571778 366.939209-243.699219 588.325866-243.699219 383.242066 0 716.082886 261.956543 807.552124 631.046631 36.405396 146.898926 32.253296 301.78833-12.457153 446.833984zm-1383.429138 342.48877c-11.392945-11.401367-28.722901 5.92456-17.325806 17.325928 128.206665 128.206054 287.02417 207.27539 452.999146 237.190673 170.662048 30.757569 348.884948 9.48877 509.122497-63.810302 14.605835-6.673096 4.463745-28.881592-10.150024-22.212647-155.68042 71.21582-328.839234 91.87793-494.659607 61.991455-161.120361-29.044678-315.368652-105.871826-439.986206-230.485107z" fill="#91c565" opacity=".673976"/><path d="m1803.721436 454.387695c4.779174 4.783203 12.538696 4.783203 17.32373 0 4.7854-4.783203 4.7854-12.544922 0-17.327636-189.784546-189.782715-438.533447-284.678223-687.272095-284.678223-248.734558 0-497.481262 94.895508-687.263641 284.678223-138.126953 138.122558-225.997055 307.547851-263.590561 485.502197-38.765869 183.497803-24.007568 376.069824 44.274414 552.730224 5.794922 14.982178 28.573242 6.184571 22.782715-8.801269-66.556885-172.205078-80.936768-359.977539-43.123291-538.946533 36.621338-173.352295 122.285873-338.4646 256.982407-473.156983 184.993438-184.995605 427.469635-277.5 669.937957-277.5 242.478638 0 484.948731 92.504395 669.948365 277.5zm-1120.697083 1503.598877c-14.164185-7.616943-25.752441 13.924317-11.580444 21.541748 124.739502 67.508789 261.165405 105.737061 399.13739 114.672608 138.985473 9.004883 279.525024-11.710449 411.27124-62.157959 15.047119-5.721192 6.343872-28.605469-8.709595-22.876221-128.487426 49.19458-265.533691 69.401123-401.027343 60.628174-134.468811-8.71582-267.456238-45.983643-389.091248-111.80835z" fill="#6e89b8" opacity=".69944"/><path d="m1291.204712 752.133789c138.600708 0 250.939941 112.341309 250.939941 250.937988 0 138.590332-112.343261 250.937744-250.939941 250.937744-138.590454 0-250.935913-112.341308-250.935913-250.935791 0-138.588378 112.349731-250.939941 250.935913-250.939941z" fill="#f0f8fa" opacity=".040979"/></g></svg>