<svg height="330" viewBox="0 0 330 330" width="330" xmlns="http://www.w3.org/2000/svg"><g fill="#fff" fill-rule="evenodd"><path d="m164 279c-61.378975 0-111-50.621017-111-112h22c0 49.483826 39.516174 90 89 90z"/><path d="m53 167c.037086-61.317581 49.682434-111.037079 111-111v21.977997c-49.434311-.029892-88.9701 39.587677-89 89.022003z"/><path d="m164 56c61.378967.03714 111.277344 49.792847 111.240204 111.171814l-21.538117-.013031c.029908-49.483795-40.218261-89.128845-89.702087-89.158783z"/><path d="m232.474731 254.782303c-18.861999 14.718551-42.695571 24.232101-68.474731 24.217697v-22c21.060303.011749 40.539139-7.531296 55.841904-19.684937.195724-.155441.158096-.315063.158096-.315063l15 15s2.423752-1.079559-2.525269 2.782303z"/><path d="m264.402649 222.700134-50.597351-55.475784h34.406204 32.382309 34.406189z"/></g></svg>