<svg height="546" viewBox="0 0 546 546" width="546" xmlns="http://www.w3.org/2000/svg" xmlns:xlink="http://www.w3.org/1999/xlink"><filter id="a" color-interpolation-filters="sRGB" filterUnits="userSpaceOnUse" height="546" width="546" x="0" y="0"><feGaussianBlur stdDeviation=".531537"/></filter><filter id="b" color-interpolation-filters="sRGB" filterUnits="userSpaceOnUse" height="546" width="546" x="0" y="0"><feGaussianBlur stdDeviation="1.123583"/></filter><filter id="c" color-interpolation-filters="sRGB" filterUnits="userSpaceOnUse" height="546" width="546" x="0" y="0"><feGaussianBlur stdDeviation="1.101762"/></filter><filter id="d" color-interpolation-filters="sRGB" filterUnits="userSpaceOnUse" height="546" width="546" x="0" y="0"><feGaussianBlur stdDeviation=".490861"/></filter><filter id="e" color-interpolation-filters="sRGB" filterUnits="userSpaceOnUse" height="546" width="546" x="0" y="0"><feGaussianBlur stdDeviation=".339843"/></filter><filter id="f" color-interpolation-filters="sRGB" filterUnits="userSpaceOnUse" height="546" width="546" x="0" y="0"><feGaussianBlur stdDeviation=".279993"/></filter><filter id="g" color-interpolation-filters="sRGB" filterUnits="userSpaceOnUse" height="546" width="546" x="0" y="0"><feGaussianBlur stdDeviation=".264736"/></filter><filter id="h" color-interpolation-filters="sRGB" filterUnits="userSpaceOnUse" height="546" width="546" x="0" y="0"><feGaussianBlur stdDeviation="1.054725"/></filter><filter id="i" color-interpolation-filters="sRGB" filterUnits="userSpaceOnUse" height="546" width="546" x="0" y="0"><feGaussianBlur stdDeviation=".820067"/></filter><path d="m97.128983 305.096802-5.211739-79.251312-.574379-26.980164-26.67572-166.047882c2.958854-4.526123 6.751426-6.038941 12.095978-1.943237l26.852493 167.148223 7.479896 25.495026 18.407265 77.13147z" fill="#929292"/><path d="m97.128983 305.096802-5.211739-79.251312c.369369.003723 19.178238-2.329011 19.178238-2.329011l18.40728 77.13147z" fill="#1a1a1a"/><path d="m180.768402 305.213257 1.250061-79.412659-.772858-26.97522 18.3555-167.172302c-3.181061-4.372742-7.044403-5.694458-12.177887-1.337097l-18.477143 168.28006-6.198181 25.836548-14.534912 77.95401z" fill="#929292"/><path d="m180.768402 305.213257 1.250061-79.412659c-.368744.022125-19.270599-1.368988-19.270599-1.368988l-14.534912 77.95401z" fill="#1a1a1a"/><g fill-rule="evenodd"><path d="m29.784998 544.570007 459.999975 1.350037 29.290039.079956s8.570008-1.429993 8.570008-5.709961c0-4.290039.71997-14.290039.71997-14.290039l-8.109985.440002-493.580008-3.059997-13.818996-1.039978s1.218998 17.950012 6.933002 20.089966c5.714997 2.140014 10 1.430053 10 2.140014z" fill="#606060"/><path d="m21.213999 523.860046 499.290029 2.859986s11.429993-.720032 17.139954-4.290039c5.720032-3.569947 5-12.860016 5-12.860016s2.860046-35.709961 2.860046-40.709961-16.430053-62.860016-19.290039-74.290009c-2.849975-11.429992-15-70.709961-15-70.709961s-1.429992-7.860046-4.279968-8.570007c-2.860046-.720032-4.290039 0-4.290039 0l10 49.279968 19.290039 82.149994.349976 1.330017.97998.949951 5.809998 14.860047s.080017 6.97998-3.149964 9.279968c-5 3.580017-23.98999 4.289978-23.98999 4.289978l-489.290022-2.859985c.001 0-11.426998-1.429993-14.284-4.279968-2.856999-2.860047-1.847001-8.070008-1.847001-8.070008l42.560999-150.499969s-8.570999 2.849975-10.713996 7.140014c-2.143006 4.279969-12.857001 59.279969-15.715002 67.859986-2.856995 8.570007-21.427999 73.569977-21.427999 73.569977s-.714 6.429992-.714 10c0 3.570007 2.141998 42.850006 2.141998 42.850006s3.572002 7.150024 7.143002 8.580017c3.571999 1.419983 12.856999 2.140014 11.428997 2.140014z" fill="#ddd" stroke="#b2b2b2"/><path d="m516.930969 525.290039s9.28003-.720032 9.28003-7.150024c0-6.420014 3.570007-29.279999 0-32.850006-3.570008-3.570008-7.140015-5.720032-7.140015-5.720032s21.429993-9.279968 20.710022-5c-.710022 4.290039-4.280029 6.429992-4.280029 12.150024 0 5.709961-.719971 28.570038-.719971 28.570038s-2.140015 4.279968.719971 5c2.860046.709961 1.429992 2.139954 1.429992 2.139954l-6.429992 2.140014-5.719971.720032z" fill="#ececec" filter="url(#a)"/><path d="m29.784998 480.290009 484.999975 2.139953-2.849975 40.000031-480.72-1.429993-1.425995-40.709991z" fill="#ededed" stroke="#000"/><path d="m54.780998 491.720001 440.719979 2.849976s7.140014 4.290039 7.140014 8.570007c0 4.289978-7.859985 9.290009-7.859985 9.290009l-442.140007-2.860016c.000999 0-9.283997-4.279968-8.57-10 .713997-5.709961 11.43-8.570008 10.709999-7.849976z" fill="#020202" stroke="#000"/><path d="m25.709002 474.619965 486.350019 2.420044 15.759949-1.220032s7.680053-.619995 9.820007-4.640015c.740051-1.389953 1.800049-2.679993 1.800049-4.649963 0-7.619995-7.330017-19.190003-7.330017-19.190003s.309997 1.659973-.600037 2.109986c-1.799988.900024-3.639953 1.790039-6.009949 2.270019-3.570007.709961-505.250021-5.090027-505.250021-5.090027l-6.18.090027-3.571003-2.330017-4.286 18.75s-.173999 6.859985 5.671002 9.080017c4.328999 1.640015 14.537999 3.109986 13.824002 2.399964z" fill="#121212"/><path d="m47.641998 310.290039-34.284998 124.99997s-1.606998 3.389953 1.428002 5c4.808002 2.539978 14.106998 1.599975 14.106998 1.599975s492.319975 4.109985 495.180021 3.400025c2.859986-.720032 5.179993-1.610047 5.179993-1.610047l.179993-8.209961s4.399963 13.52002 1.070007 15c-3.220032 1.419983-10 1.25-10 1.25l-501.430013-4.290039-6.429001-1.429993-1.785-2.5 1.215999-5.929992 35.568999-127.279938z" fill="#2c2c2c" stroke="#252525"/><path d="m16.213999 446.540009.178001-5.54004-1.964001-.359985-2.856998.900025-.535999 1.429992s-.357003 1.599976.535999 1.959961c.892998.360047 2.5.890015 2.5.890015z" fill="#d5d5d5" filter="url(#b)" stroke="#d1d1d1"/><path d="m526.031006 449.749969c0-.70996-1.25-3.20996.359985-4.109985 1.609986-.890015 2.859986-.349975 2.859986-.349975s3.030029 2.679992 2.320007 2.849975c-.709961.179993-.890015 1.080017-2.679993 1.789978-1.779968.710022-2.320007 0-2.859985-.179993z" fill="#d5d5d5" filter="url(#c)" stroke="#dadada"/></g><path d="m148.640991 497.329987.25 3.849975" fill="none" filter="url(#d)" stroke="#2aea00"/><path d="m146.390991 499.040009s-2.98999 5.349975 2.320008 5.529968c6.070007.210022 2.86-5.349976 2.86-5.349976" fill="none" filter="url(#d)" stroke="#2aea00"/><path d="m191.037979 501.540039c.028015 1.549316-.782501 2.993103-2.119812 3.776001-1.337311.782837-2.993042.782837-4.330353 0-1.33728-.782898-2.147827-2.226685-2.119812-3.776001-.028015-1.549377.782532-2.993164 2.119812-3.776001 1.337311-.782898 2.993042-.782898 4.330353 0 1.337311.782837 2.147827 2.226624 2.119812 3.776001z" fill="#fff" stroke="#444" stroke-linejoin="round" stroke-width=".923"/><path d="m188.894684 501.625397c.013428.742401-.374954 1.434204-1.015747 1.809356-.640808.375122-1.434189.375122-2.074982 0-.640778-.375152-1.029175-1.066955-1.015747-1.809356-.013428-.742401.374969-1.434235 1.015747-1.809326.640793-.375153 1.434174-.375153 2.074982 0 .640793.375091 1.029175 1.066925 1.015747 1.809326z" fill="#101010" stroke="#000" stroke-linejoin="round" stroke-width=".923025"/><path d="m220.728256 503.324493c.014328.791687-.399841 1.52945-1.083191 1.929474-.683365.400025-1.529419.400025-2.212768 0-.683335-.400024-1.097519-1.137787-1.083206-1.929474-.014313-.791717.399871-1.52948 1.083206-1.929504.683349-.400055 1.529403-.400055 2.212768 0 .68335.400024 1.097519 1.137787 1.083191 1.929504z" fill="#fff" stroke="#7b7b7b" stroke-linejoin="round" stroke-width=".872004"/><path d="m226.978256 503.324493c.014328.791687-.399841 1.52945-1.083191 1.929474-.683365.400025-1.529419.400025-2.212768 0-.683335-.400024-1.097519-1.137787-1.083206-1.929474-.014313-.791717.399871-1.52948 1.083206-1.929504.683349-.400055 1.529403-.400055 2.212768 0 .68335.400024 1.097519 1.137787 1.083191 1.929504z" fill="#fff" stroke="#7b7b7b" stroke-linejoin="round" stroke-width=".872004"/><path d="m223.938263 499.034485c.014313.791687-.399857 1.529449-1.083206 1.929504-.68335.400025-1.529419.400025-2.212769 0-.683334-.400055-1.097519-1.137817-1.083206-1.929504-.014313-.791718.399872-1.52948 1.083206-1.929505.68335-.400054 1.529419-.400054 2.212769 0 .683349.400025 1.097519 1.137787 1.083206 1.929505z" fill="#fff" stroke="#7b7b7b" stroke-linejoin="round" stroke-width=".872004"/><path d="m262.281006 500.999969s-1.070007 1.429993-1.779999 2.320008c-.720001.900024-.720001 2.5-1.970001 1.970032-1.25-.54004-3.210022-2.5-3.029999-3.929993.179993-1.430054 3.029999-3.570007 3.029999-3.570007s.720001 1.070007 1.789978 1.779968c1.070007.720032 1.790008 1.25 1.960022 1.429992z" fill="none" stroke="#606060"/><path d="m290.501007 498.139984h4.279999l1.25 1.25v2.330017l-.890015 1.779968h-4.459991l-1.429993-1.070007v-3.209961z" fill="none" filter="url(#d)" stroke="#28cc03"/><path d="m289.960999 505.290009h5.540008" fill="none" filter="url(#d)" stroke="#28cc03"/><path d="m324.070984 498.139984h4.290008l1.25 1.25v2.330017l-.899993 1.779968h-4.459992l-1.430023-1.070007v-3.209961z" fill="none" stroke="#4d4d4d"/><path d="m323.531006 505.290009h5.539978" fill="none" stroke="#4d4d4d"/><path d="m361.210999 498.499969h4.290008l1.25 1.25v2.320008l-.890015 1.790039h-4.470001l-1.429992-1.070007v-3.220032z" fill="none" stroke="#4d4d4d"/><path d="m360.681 505.639984h5.529999" fill="none" stroke="#4d4d4d"/><path d="m398.360992 498.679962h4.279999l1.25 1.25v2.320007l-.889984 1.79004h-4.470001l-1.420014-1.070008v-3.220032z" fill="none" stroke="#4d4d4d"/><path d="m397.820984 505.819977h5.540008" fill="none" stroke="#4d4d4d"/><path d="m283.270996 504.579987.049988-5.570008-.389984.23999c-.059998.059998-.119995.080018-.170014.080018-.029998 0-.079986-.029969-.149994-.099976-.059997-.070007-.100006-.140015-.100006-.210022 0-.090027.050019-.190002.140015-.299988.089996-.109985.190002-.220032.279999-.330017l.959991-1.349975.790009.45996-.01001 7.76001c0 .100037-.069977.150025-.22998.150025-.050019 0-.100007-.01001-.130005-.02002l-.720002-.179993c-.209991-.099975-.320007-.309997-.320007-.630004z" filter="url(#e)" stroke="#28cc03"/><path d="m319.151001 499.559967c0 .660034-.230011 1.470032-.709991 2.420044-.390015.789978-.900025 1.599976-1.52002 2.440002l-.199982.259949 1.389984-.019958c.25 0 .470002.019958.670014.080017.199982.049988.339996.129944.419983.23999.180023.23999.26001.429993.26001.579956 0 .130005-.059998.220032-.179993.25-.119995.030029-.220001.050049-.309998.050049l-3.790008.190002-.399994-1.400024c.269989-.320007.539978-.630005.809997-.940003.579987-.789978 1.059998-1.539978 1.440003-2.22998.509979-.940002.769989-1.640015.769989-2.110046 0-.109986-.01001-.190003-.029999-.259949-.01001-.059998-.049988-.090027-.109985-.090027-.150025 0-.460022.190002-.930023.570007-.309998.25-.709992.619995-1.209992 1.109986-.399994.390014-.609985.590027-.619995.609985l-.670013-.949951c0-.059998.180023-.290039.529998-.680054.410004-.459961.820008-.839966 1.220002-1.139953.559997-.410035 1.020019-.610047 1.410003-.610047.220001 0 .410004.060059.559998.180054.550018.399963.860016.649963.930023.72998.179993.219971.269989.460022.269989.719971z" stroke="#939393"/><path d="m352.760986 506.589996-.649994-1.039978.720002-.120056c.550018-.099975 1.089996-.379944 1.619995-.839966.5-.440002.75-.780029.75-1.039978 0-.150024-.139984-.280029-.419983-.400024s-.589996-.179993-.929993-.179993c-.210022 0-.410003.02002-.580017.070008-.169983.059997-.320007.149963-.440002.269958l-.440003-.319946v-1.040039l.320008-.159973c.549987-.239991 1.100006-.619996 1.649993-1.130005.550019-.51001.830018-.890015.830018-1.150025 0-.059997-.02002-.099975-.059998-.140014-.100006-.099976-.26001-.149964-.480011-.149964-.330017 0-.75.099976-1.25.299988-.410004.159973-.649994.27002-.709991.340027l-.5-1.140015c.079986-.100036.339996-.23999.779998-.419983.529999-.230041 1-.340027 1.389984-.340027.110016 0 .220002.01001.330018.039978.379974.090027.690002.240052.929992.450013.179993.160034.369995.419983.570008.760009.049987.080018.079986.159974.089996.229981.019989.080017.019989.150024.019989.230041 0 .289978-.109985.609986-.320007.959961-.220002.340027-.489991.650025-.809998.920044l-.449982.369995c.380005 0 .779999.229981 1.190003.679993.409973.450012.619995.940003.619995 1.459961 0 .300049-.070007.570007-.210022.800049-.139984.219971-.339996.449951-.609985.690002-.329987.289978-.700013.529969-1.109986.719971-.51001.22998-1 .340027-1.480011.340027-.059997 0-.130005 0-.200012-.01001-.059998-.01001-.119995-.01001-.160004-.01001z" stroke="#939393"/><path d="m388.19101 503.300018 2.899993-4.990051 1.290009.51001-.150024 3.929992.410003.090027c.200012.059998.309998.089966.320008.099976.049987.030029.089996.080017.119995.150024.059997.150025.110016.25.140014.320008.029999.070007.039978.149963.039978.23999 0 .059997-.009979.119995-.039978.190002l-1.089996.070008.009979 2.529968c0 .210022-.070007.300049-.209991.280029-.399994-.059997-.630005-.100036-.700012-.119995-.239991-.109985-.359986-.320007-.359986-.640015v-1.96997h-1.940002zm1.509979-.510009 1.320007.029968.200012-2.979981z" stroke="#939393"/><path d="m63.550995 499.079987c-.259995 1.210022-.439995 2.059997-.539993 2.539978-.150002.760009-.300003 1.620056-.460007 2.570007l-1.299996-.48999-.770004-4.179993-.869995 4.919983-1.380005-.440003-.709999-7.72998c0-.090027.07-.130005.209999-.130005.120003.01001.200005.01001.240006.01001.159996 0 .290001.029968.389999.080017.110001.049988.169998.139954.18.269958l.439995 5.900025.880005-5.710022 1.389999.059997.610001 5.480042c.110001-1.119995.309998-2.360046.580002-3.690002.129997-.660035.239998-1.170044.329994-1.54004.080002-.289978.220001-.789978.440003-1.519958.019996-.030029.050003-.070007.080001-.110046.07-.069947.150002-.099976.239998-.079956.230004.039978.419998.109985.559998.21997.139999.119995.209999.27002.209999.460022-.179993.709961-.309998 1.229981-.39 1.549988zm1.840004-.940003v-.779968c0-.150025.050003-.280029.139999-.400025.090004-.119995.209999-.169982.349999-.169982.139999 0 .260002.049987.380005.149963.11.110046.159996.230041.159996.369995v1.080017c0 .119995-.049996.200012-.150002.25-.110001.049988-.229996.080017-.369995.080017-.150002 0-.270004-.059997-.360001-.169983-.099998-.110046-.150001-.25-.150001-.410034zm-.050003 5.799988v-4.389954c0-.200012.120003-.290039.340004-.290039.269996 0 .470001.03003.580002.100037.119995.069946.18.159973.18.279968l-.110001 4.73999c0 .100037-.069999.150025-.220001.150025-.080002 0-.150001-.01001-.209999-.03003-.060005-.009948-.100006-.029968-.139999-.029968-.280007-.090027-.420006-.270019-.420006-.530029zm2.560005-4.359985.110001-.130005h.269996c.07 0 .14.040039.220001.109985.089997.080017.150002.130005.199997.140015.110001.030029.209999-.049988.279999-.26001.07-.199951.160004-.320007.260002-.339966.099999-.030029.169998-.049988.209999-.049988.150002 0 .279999.059998.400002.169983.110001.099976.169998.229981.169998.390015l-.009994.459961c0 .23999-.030007.450012-.080002.630005-.059998.190002-.150002.290039-.270005.290039-.18 0-.309997-.180054-.369995-.540039-.029998-.179993-.090004-.27002-.169998-.27002-.070007 0-.130005.060059-.170006.180054-.049995.119995-.069999.359985-.069999.719971v.299987.190003 2.929992c-.089997.04004-.189995.059998-.299996.059998-.069999 0-.160003-.009949-.260002-.029968-.11-.03003-.209999-.090027-.300003-.179993-.099998-.090027-.149994-.210022-.149994-.350037zm5.769997.910034.069999 1.439941-1.699997.280029c-.150001.03003-.240005.070008-.290001.109986-.11.080017-.160003.190002-.160003.330017l.030006.559997c0 .119996.029999.229981.109993.330018.080002.099975.170006.139953.270004.130004.220002-.030029.5-.200012.839997-.520019.340004-.320007.490005-.52002.459999-.590027.030006-.019958.080002-.029968.150001-.029968.14 0 .240006.049988.300003.140014.07.079956.099999.179993.099999.269959 0 .040039-.010002.090027-.040001.160034-.049995.179993-.110001.339966-.199997.479981-.040001.059997-.150001.200012-.340004.419982-.149994.170044-.299995.300049-.459999.380005-.159996.080017-.339996.119995-.559998.119995-.139999 0-.260002-.009948-.349998-.039978-.090004-.030029-.190002-.080017-.279999-.159973l-.630005-.570007c-.019996-.01001-.049995-.050049-.069999-.100037-.019997-.059997-.040001-.099975-.059998-.139953-.060005-.140015-.080002-.290039-.080002-.450012v-.940003c0-.609985.129997-1.230041.400002-1.880005.269996-.650024.549995-.970032.86-.970032.040001 0 .080002 0 .099999.01001.159996.049988.349998.080017.589996.109986.230004.020019.420006.100036.550003.25.129997.140014.230004.280029.290001.410034.07.130005.099999.289978.099999.460022zm-.879998-.01001c0-.130005-.020004-.25-.080001-.360046-.050004-.099976-.129998-.169983-.239998-.199952-.120003-.030029-.230004.099976-.340004.380005-.07.199951-.119995.339966-.14.419983-.069999.169983-.11.309998-.150001.429993-.029999.119995-.040001.25-.040001.390015l.990005-.230042zm2.119995 3.279968.100007-7.309997c0-.099976.049995-.169983.149993-.219971.100007-.040039.210007-.059998.330002-.030029.169998.030029.290001.090027.349999.169983.060005.080017.090004.190002.090004.340026l-.180001 7.609986c0 .090027-.080001.130005-.230003.130005-.059997 0-.119995 0-.18-.02002-.209999-.099975-.329994-.179993-.369995-.23999-.040001-.059998-.060006-.209961-.060006-.429993zm5.020005-3.269958.069999 1.439941-1.709999.280029c-.139999.03003-.240005.070008-.279998.109986-.110001.080017-.160004.190002-.160004.330017l.020004.559997c0 .119996.039993.229981.119995.330018.07.099975.160004.139953.270005.130004.219993-.030029.5-.200012.839996-.520019.330002-.320007.489998-.52002.449997-.590027.040001-.019958.090004-.029968.160004-.029968.139999 0 .239997.049988.300003.140014.059997.079956.099998.179993.099998.269959 0 .040039-.020004.090027-.040001.160034-.050003.179993-.120003.339966-.199997.479981-.040001.059997-.160003.200012-.340004.419982-.150001.170044-.309997.300049-.459999.380005-.160004.080017-.340004.119995-.559997.119995-.14 0-.260003-.009948-.350007-.039978-.099998-.030029-.189994-.080017-.289993-.159973l-.620003-.570007c-.020004-.01001-.050003-.050049-.069999-.100037-.029999-.059997-.050003-.099975-.059998-.139953-.060005-.140015-.090004-.290039-.090004-.450012v-.940003c0-.609985.14-1.230041.410004-1.880005.259994-.650024.549995-.970032.849998-.970032.049996 0 .089997 0 .110001.01001.149994.049988.349998.080017.579994.109986.240006.020019.420006.100036.560005.25.129998.140014.229996.280029.290001.410034.059998.130005.099999.289978.099999.460022zm-.880005-.01001c0-.130005-.029999-.25-.079994-.360046-.050003-.099976-.130005-.169983-.240006-.199952-.119995-.030029-.239998.099976-.339996.380005-.07.199951-.120003.339966-.14.419983-.069999.169983-.120002.309998-.150001.429993s-.050003.25-.050003.390015l1-.230042zm1.990005 3.48999c-.090004-.059997-.139999-.160034-.139999-.299988 0-.080017.019997-.150024.07-.220031.049995-.080017.11-.130005.18-.169983.059998-.03003.129997-.03003.189995 0 .209999.130005.370003.22998.470001.299988.200005.130004.349998.190002.450005.190002.09999 0 .160003-.039978.190002-.109985.019989-.080017.029999-.130005.029999-.150025v-.089966c0-.170044-.090012-.330017-.270004-.490051-.180001-.139953-.349999-.269958-.519997-.409973-.18-.140015-.310005-.279968-.400002-.419983-.090004-.130005-.160003-.290039-.190002-.470032-.040001-.169983-.059998-.320007-.059998-.450012 0-.409973.119995-.779968.349999-1.109985.230003-.329956.529999-.5.890007-.5h.189987c.060013 0 .100006.01001.12001.020019l.580002.349976c.12999.080017.209992.190002.259995.340027.029999.059997.050003.21997.069992.46997 0 .179993-.009995.340027-.029999.460022-.019989.130005-.059998.27002-.119995.409974h-.630005c-.019989-.059998-.059998-.119996-.110001-.159974-.049987-.039978-.079986-.270019-.079986-.669982v-.340027c-.020004-.070008-.060013-.099976-.110001-.099976-.080002 0-.180008.099976-.300003.289978-.120003.190003-.190002.359985-.210007.5-.029998.190003.020005.359985.130005.530029.080002.119996.220002.259949.429993.429993.210007.169983.430008.339966.650009.51001.259995.22998.37999.469971.37999.719971 0 .309997-.14.590026-.419998.849975-.279999.25-.539994.380005-.789994.380005-.18 0-.349998-.029968-.510002-.109985-.159996-.070008-.409996-.229981-.739998-.479981zm3.449997 0c-.100006-.059997-.149994-.160034-.149994-.299988 0-.080017.029999-.150024.080002-.220031.039994-.080017.099991-.130005.169998-.169983.069992-.03003.12999-.03003.199997 0 .209992.130005.360001.22998.470002.299988.199997.130004.339996.190002.440002.190002.099991 0 .169998-.039978.189987-.109985.030014-.080017.040009-.130005.040009-.150025v-.089966c0-.170044-.089997-.330017-.279999-.490051-.169998-.139953-.350006-.269958-.520004-.409973s-.300003-.279968-.399994-.419983c-.090012-.130005-.150009-.290039-.190003-.470032-.029998-.169983-.050003-.320007-.050003-.450012 0-.409973.110001-.779968.350006-1.109985.229996-.329956.519989-.5.87999-.5h.200012c.049988 0 .089997.01001.119995.020019l.569992.349976c.130005.080017.220002.190002.270005.340027.020004.059997.040008.21997.070007.46997 0 .179993-.01001.340027-.029999.460022-.020004.130005-.060013.27002-.130005.409974h-.619995c-.030014-.059998-.060013-.119996-.12001-.159974-.050003-.039978-.069992-.270019-.069992-.669982v-.340027c-.029999-.070008-.059998-.099976-.110001-.099976-.080002 0-.180008.099976-.300003.289978-.119995.190003-.190002.359985-.220001.5-.020004.190003.020004.359985.139999.530029.070008.119996.220002.259949.430008.429993.199997.169983.419998.339966.64.51001.259994.22998.389999.469971.389999.719971 0 .309997-.139999.590026-.419998.849975-.280014.25-.550003.380005-.790009.380005-.190002 0-.36-.029968-.520004-.109985-.159988-.070008-.399994-.229981-.729996-.479981zm15.369995-5.619995c-.049987.440003-.229995.849976-.549987 1.229981-.26001.309997-.65001.630004-1.170014.98999l-.509994.340027 1.940002 2.929992c.020004.080017.029999.140015.029999.179993 0 .200012-.089996.359985-.270004.470032-.089997.049988-.169999.069946-.25.069946-.119995 0-.229996-.029968-.330002-.089966-.099991-.059997-.189987-.140014-.269989-.26001l-2.419998-3.270019-.060013 3.360046c0 .119995-.099991.179993-.289993.179993-.110001 0-.199997-.02002-.270005-.050049-.149994-.049988-.279999-.089966-.389999-.139953-.110001-.04004-.169998-.160035-.169998-.360047l.020004-7.159973c0-.150024.029999-.279968.069992-.390015.040009-.099975.130005-.190002.26001-.23999.059997-.029968.129989-.039978.199997-.039978.179992 0 .319992.070007.419998.190003.210007-.100037.399994-.170044.570007-.190003.159989-.030029.399994-.049988.689987-.049988h.630005c.509995 0 .990006.229981 1.449997.679993.449997.440002.680008.929993.680008 1.459961-.01001.070007-.01001.119995-.01001.160034zm-3.779998 1.839966c.419998-.099976.75-.23999.970001-.409973.230011-.169983.410004-.309998.550003-.429993.320007-.23999.559997-.520019.740005-.820007.179993-.309998.269989-.619995.269989-.940003 0-.190002-.089996-.340027-.289993-.440002-.190002-.099976-.419998-.150025-.699997-.150025-.330002 0-.639999.050049-.940002.160035-.300003.099975-.470001.22998-.529999.380005zm5.630005 4.140015c-.360001-.140015-.619996-.369996-.789994-.679993-.170013-.309998-.25-.679993-.25-1.119995v-.26001c0-.070007.009995-.200012.049988-.369995.01001-.299988.029999-.539978.040009-.720032.069992-.629944.319992-1.289978.770004-1.969971.049988-.080017.119995-.119995.219986-.119995.050003 0 .170013.039978.350006.109986.169998.070007.309997.109985.399994.109985.460007 0 .800003.26001 1.040008.790039.199997.450012.300003 1.029968.300003 1.73999 0 .719971-.100006 1.299988-.279998 1.75-.220002.539978-.570008.880005-1.029999 1-.080002.01001-.130005.02002-.160004.02002-.059997 0-.12001-.02002-.180008-.050049-.050003-.029968-.11-.059998-.169998-.089966zm.529998-4.179993c-.119995.26001-.240005.529968-.350006.789978-.119995.270019-.179992.600037-.179992.98999 0 .120056-.009995.300049-.029999.530029-.029999.229981-.040009.400025-.040009.51001 0 .200012.030014.369995.090012.51001.059997.139954.169998.25.330002.339966.129989.070007.269989-.099976.419998-.51001.11-.309998.199997-.690002.279999-1.139954.020004-.140014.029998-.290039.029998-.450012 0-.390014-.050003-.76001-.150009-1.119995-.109985-.359985-.209991-.540039-.299988-.540039-.040008 0-.080001.030029-.100006.090027zm3.729996 4.340027c-.119995 0-.220001-.02002-.299988-.070008l-.410003-.25c-.070008-.040039-.130005-.090026-.169999-.150024-.040008-.049988-.100006-.140015-.160003-.26001-.110001-.200012-.160004-.409973-.160004-.609985l.169998-3.409973c0-.080017.050003-.120056.160004-.120056.039993 0 .110001.010009.190002.030029l.240006.059997c.089996.02002.189987.080018.309997.169983l-.169998 2.630005c0 .440003.029999.76001.069992.970032.059998.070007.119995.139954.169998.209961.270005-.199951.449997-.359985.529999-.51001.080002-.139953.120011-.289978.120011-.449951l.059997-3.340027.309998-.039978c.300003 0 .550003.109985.770004.320007l-.01001 4.880005c-.069992.029969-.159988.049988-.25.049988-.029999 0-.080002-.01001-.169998-.030029-.080002-.019959-.160004-.049988-.220001-.089966-.069992-.040039-.110001-.100037-.119995-.179993l-.070008-.510009-.519989.559997c-.090011.089966-.220001.140015-.37001.140015zm3.290009-4.02002-.190003-.100036h-.199997l-.180008-.219971-.019989-.580017.610001-.130005.059997-2.279968c.12999-.03003.25-.049988.369996-.049988.080001 0 .160003.009949.259994.019958.100006.02002.240006.070008.400009.150025l-.020004 2.039978h.529999l.169998.309997-.019989.580017-.800003.080018v4.179992c-.090012.02002-.160004.029968-.220001.029968-.050003 0-.120011-.009948-.190003-.029968-.080002-.020019-.149994-.040039-.229996-.049988-.279998-.080017-.419998-.240051-.419998-.470031zm5.379989.02002.070008 1.439941-1.710007.280029c-.14.03003-.23999.070008-.279999.109986-.110001.080017-.159988.190002-.159988.330017l.019989.559997c0 .119996.040008.229981.12001.330018.069992.099975.159988.139953.269989.130004.220001-.030029.5-.200012.840012-.520019.329986-.320007.48999-.52002.449997-.590027.039993-.019958.089996-.029968.160003-.029968.14 0 .23999.049988.299988.140014.060013.079956.100006.179993.100006.269959 0 .040039-.020004.090027-.039993.160034-.050003.179993-.120011.339966-.200012.479981-.039994.059997-.159989.200012-.339997.419982-.149994.170044-.309997.300049-.459991.380005-.160004.080017-.340012.119995-.560013.119995-.139999 0-.259994-.009948-.349991-.039978-.100006-.030029-.190002-.080017-.290008-.159973l-.619995-.570007c-.020005-.01001-.050004-.050049-.070008-.100037-.029999-.059997-.049988-.099975-.059997-.139953-.059998-.140015-.089997-.290039-.089997-.450012v-.940003c0-.609985.14-1.230041.410004-1.880005.259994-.650024.550003-.970032.849991-.970032.050003 0 .090011 0 .11.01001.15001.049988.350007.080017.580002.109986.240006.020019.419998.100036.559998.25.130005.140014.230011.280029.290008.410034.059998.130005.099991.289978.099991.460022zm-.879989-.01001c0-.130005-.029999-.25-.080002-.360046-.050003-.099976-.130005-.169983-.240006-.199952-.119995-.030029-.23999.099976-.339996.380005-.069992.199951-.119995.339966-.139999.419983-.070008.169983-.119996.309998-.149994.429993-.029999.119995-.050003.25-.050003.390015l1-.230042zm2.139999-.900024.110001-.130005h.270004c.069992 0 .139999.040039.219986.109985.090011.080017.150009.130005.200012.140015.110001.030029.209991-.049988.279999-.26001.069992-.199951.159988-.320007.259994-.339966.100006-.030029.169998-.049988.210007-.049988.149994 0 .279999.059998.399994.169983.110001.099976.169998.229981.169998.390015l-.009994.459961c0 .23999-.029999.450012-.080002.630005-.059998.190002-.149994.290039-.270005.290039-.179992 0-.309997-.180054-.369995-.540039-.029998-.179993-.089996-.27002-.169998-.27002-.070007 0-.130005.060059-.169998.180054-.050003.119995-.070007.359985-.070007.719971v.299987.190003 2.929992c-.089997.04004-.190003.059998-.300003.059998-.069992 0-.159989-.009949-.259995-.029968-.11-.03003-.210007-.090027-.300003-.179993-.099991-.090027-.149994-.210022-.149994-.350037z" fill="#979797"/><path d="m17.107 521.890015c-.535999-.710022-5.356998-3.75-5.715-7.140015-.356998-3.389984.715-34.279999.715-34.279999s2.320999-4.650024 4.285-5.179992c1.965004-.54004 3.036003-1.070008 3.036003-1.070008l-11.607002-2.679992-2.679001-3.400025.535999 12.5.893002 30.720032s-.714001 3.029999-1.964001 3.389984c-1.25.360046 2.678001 5.540039 3.570999 5.890015.893002.359985 8.929001 1.609985 8.929001 1.25z" fill="#ececec" fill-rule="evenodd" filter="url(#f)"/><path d="m2.107 468.499969s3.393001 5.890015 6.606999 6.25c3.214.360047 10.178001 1.610047 14.464004 1.610047h4.285996" fill="none" filter="url(#g)" stroke="#fdfdfd" stroke-width="2"/><path d="m30.678003 476.720001 187.849982-.720032" fill="none" stroke="#fdfdfd"/><path d="m13.809999 434.970001 32.071997-124.249969s1.768006-6.820008 9.089005-10.350037c7.329994-3.539978 18.689994-4.039978 18.689994-4.039978s403.050004 1.51001 404.060013 1.51001c1.01001 0 15.409973 2.779968 18.690003 6.059997 3.279968 3.289978 6.309997 10.359986 6.309997 10.359986l26.52002 121.970001s1.009949 6.820007-1.26001 7.829956c-2.280029 1.01001-8.840027 1.01001-8.840027 1.01001l-499.519987-3.529968c-.003006 0-4.801002-1.26001-5.558002-2.53003-.758-1.26001 0-3.789978-.253003-4.039978z" fill="#929292" fill-rule="evenodd"/><path d="m13.557001 436.490021s.252998 2.519958 2.021 3.279968c1.767998.76001 5.808002.76001 5.808002.76001l503.059981 4.039978c-.01001 0 2.770019.25 4.280029-1.519959 1.519959-1.760009 1.01001-6.309997 1.01001-6.309997" fill="none" filter="url(#h)" stroke="#868686" stroke-width="1.5"/><path d="m118.181 306.720032-1.790009 8.119995h3.840012l2.050003-7.950012z" fill-rule="evenodd" filter="url(#i)" stroke="#000"/><path d="m122.910995 305.910034c-.449996 0-4.910003-.179992-4.910003-.179992" fill="none" filter="url(#i)" stroke="#494949"/><path d="m143.580994 306.630005-1.069992 8.210022h3.839996l1.339996-8.039978z" fill-rule="evenodd" filter="url(#i)" stroke="#000"/><path d="m148.130997 305.820007c-.440003 0-4.910004-.179992-4.910004-.179992" fill="none" filter="url(#i)" stroke="#494949"/><path d="m169.651001 306.179993-.979996 8.120056h3.839997l1.25-7.940003z" fill-rule="evenodd" filter="url(#i)" stroke="#000"/><path d="m174.380997 305.380005c-.440003 0-4.910004-.179993-4.910004-.179993" fill="none" filter="url(#i)" stroke="#494949"/><path d="m195.281006 306.720032-.900009 8.119995h3.839996l1.160004-7.950012z" fill-rule="evenodd" filter="url(#i)" stroke="#000"/><path d="m200.011002 305.910034c-.449997 0-4.910004-.179992-4.910004-.179992" fill="none" filter="url(#i)" stroke="#494949"/><path d="m220.540985 306.360046-.529999 8.75h3.840027l.799988-8.570007z" fill-rule="evenodd" filter="url(#i)" stroke="#000"/><path d="m225.281006 305.550049c-.450012 0-4.920014-.170044-4.920014-.170044" fill="none" filter="url(#i)" stroke="#494949"/><path d="m246.17099 307.070007-.269989 8.400025h3.839996l.540009-8.220032z" fill-rule="evenodd" filter="url(#i)" stroke="#000"/><path d="m250.901001 306.27002c-.450012 0-4.910004-.179993-4.910004-.179993" fill="none" filter="url(#i)" stroke="#494949"/><path d="m272.330994 307.340027-.359986 8.570007h3.839997l.630005-8.390014z" fill-rule="evenodd" filter="url(#i)" stroke="#000"/><path d="m277.061005 306.540039c-.450013 0-4.910004-.179993-4.910004-.179993" fill="none" filter="url(#i)" stroke="#494949"/><path d="m297.781006 307.340027.079986 8.210022h3.839997l.180023-8.030029z" fill-rule="evenodd" filter="url(#i)" stroke="#000"/><path d="m302.510986 306.540039c-.449981 0-4.909973-.179993-4.909973-.179993" fill="none" filter="url(#i)" stroke="#494949"/><path d="m324.031006 307.070007v8.570008h3.829986l.27002-8.390015z" fill-rule="evenodd" filter="url(#i)" stroke="#000"/><path d="m328.760986 306.27002c-.449981 0-4.909973-.179993-4.909973-.179993" fill="none" filter="url(#i)" stroke="#494949"/><path d="m348.490997 307.700012.709992 8.390015h3.839996l-.439972-8.210022z" fill-rule="evenodd" filter="url(#i)" stroke="#000"/><path d="m353.221008 306.890015c-.440002 0-4.910003-.169983-4.910003-.169983" fill="none" filter="url(#i)" stroke="#494949"/><path d="m374.830994 307.340027.619995 8.390015h3.839996l-.349975-8.210022z" fill-rule="evenodd" filter="url(#i)" stroke="#000"/><path d="m379.561005 306.540039c-.450013 0-4.910004-.179993-4.910004-.179993" fill="none" filter="url(#i)" stroke="#494949"/><path d="m400.360992 308.050049.990021 8.309997h3.839997l-.720002-8.130004z" fill-rule="evenodd" filter="url(#i)" stroke="#000"/><path d="m405.101013 307.25c-.450012 0-4.910003-.179993-4.910003-.179993" fill="none" filter="url(#i)" stroke="#494949"/><path d="m426.351013 307.790039 1.069977 8.479981h3.839996l-.809997-8.299988z" fill-rule="evenodd" filter="url(#i)" stroke="#000"/><path d="m431.080994 306.980042c-.449982 0-4.910004-.179993-4.910004-.179993" fill="none" filter="url(#i)" stroke="#494949"/></svg>